<svg xmlns="http://www.w3.org/2000/svg" width="27.094" height="33.281" viewBox="0 0 27.094 33.281">
  <g id="Group_80443" data-name="Group 80443" transform="translate(13729.011 -8495.719)">
    <path id="Path_209441" data-name="Path 209441" d="M4499.942,1035.561a7.918,7.918,0,0,1-1.24-.53,3.091,3.091,0,0,1-1.417-2.634q-.2-4.43-.408-8.86-.209-4.381-.433-8.761c-.021-.43.075-.533.518-.533h22.76c.452,0,.539.1.517.566q-.16,3.261-.314,6.522-.182,3.732-.367,7.463-.085,1.768-.155,3.538a3.16,3.16,0,0,1-1.869,2.957,7.138,7.138,0,0,1-.791.272Zm2.148-12v1.786c0,1.645,0,3.29,0,4.935a1.039,1.039,0,0,0,1.379,1.051,1.093,1.093,0,0,0,.705-1.157V1017.03a2.417,2.417,0,0,0-.006-.259,1.036,1.036,0,0,0-1.48-.859,1.065,1.065,0,0,0-.6,1.062Q4502.093,1020.269,4502.09,1023.564Zm7.3.075v-2.078c0-1.548.005-3.1,0-4.643a1.037,1.037,0,0,0-1.437-1.029,1.072,1.072,0,0,0-.648,1.1q0,6.607,0,13.214a2.2,2.2,0,0,0,0,.227,1.046,1.046,0,0,0,1.421.894,1.088,1.088,0,0,0,.66-1.093Q4509.388,1026.935,4509.387,1023.639Zm3.124-.036v2.468c0,1.407-.005,2.814,0,4.221a1.042,1.042,0,0,0,1.416,1.034,1.093,1.093,0,0,0,.668-1.119q0-6.607,0-13.214a1.955,1.955,0,0,0-.006-.227,1.036,1.036,0,0,0-1.485-.851,1.069,1.069,0,0,0-.6,1.065Q4512.513,1020.291,4512.51,1023.6Z" transform="translate(-18223.809 7493.439)" fill="#585757"/>
    <path id="Path_209442" data-name="Path 209442" d="M4485.828,880.633c0-.389,0-.744,0-1.1a3.105,3.105,0,0,1,3.076-3.06q2.133-.011,4.265,0a3.1,3.1,0,0,1,3.074,3.062c0,.355,0,.709,0,1.1h.38q2.654,0,5.307,0a2.58,2.58,0,0,1,2.649,2.65c0,.661,0,1.322,0,1.982a1.02,1.02,0,0,1-1.076,1.084q-12.469,0-24.939,0a1.023,1.023,0,0,1-1.073-1.087c0-.693,0-1.386,0-2.08a2.58,2.58,0,0,1,2.553-2.548C4481.955,880.627,4483.865,880.633,4485.828,880.633Zm2.083-.021h6.248c0-.376.021-.733,0-1.086a1.026,1.026,0,0,0-1.034-.97q-2.081-.019-4.162,0a1.035,1.035,0,0,0-1.043,1C4487.9,879.9,4487.911,880.242,4487.911,880.611Z" transform="translate(-18206.5 7619.25)" fill="#585757"/>
  </g>
</svg>
